<svg id="Layer_1" data-name="Layer 1" xmlns="http://www.w3.org/2000/svg" viewBox="0 0 321.3 36.28"><defs><style>.cls-1{fill:#fff;}</style></defs><title>cfpt</title><path class="cls-1" d="M613.88,279.21l2.63-10c0.62-2.36.28-4.33-2.36-4.33a4.28,4.28,0,0,0-3.49,1.77H610.5l0.4-1.53H608l-7,26.72h3l2.63-10h0.16c0.28,1.34,1.11,1.77,2.56,1.77C611.92,283.53,613.26,281.56,613.88,279.21Zm-2.81-.51a2.54,2.54,0,0,1-2.42,2.16c-1.34,0-1.6-.95-1.28-2.16l2.22-8.46c0.36-1.38.9-2.67,2.55-2.67,1.29,0,1.61.9,1.29,2.12l-2.36,9" transform="translate(-482.42 -255.75)"/><path class="cls-1" d="M626.41,268.77a1.37,1.37,0,0,0-1.15-.59,2.23,2.23,0,0,0-2.38,1.89l-3.47,13.22h-2.95l4.77-18.22h2.84l-0.48,1.85h0.16a3.25,3.25,0,0,1,2.87-2.08,1.36,1.36,0,0,1,.91.27l-1,3.66h-0.15Z" transform="translate(-482.42 -255.75)"/><path class="cls-1" d="M635.54,279.24l2.65-10.12c0.76-2.91-.21-4.29-3.16-4.29h-0.71c-2.91,0-4.65,1.38-5.41,4.29l-2.66,10.12c-0.77,2.91.25,4.29,3.16,4.29h0.71C633.08,283.53,634.78,282.15,635.54,279.24Zm-2.79-.16a2,2,0,0,1-2.25,1.7c-1.14,0-1.7-.43-1.37-1.7l2.57-9.79A2.05,2.05,0,0,1,634,267.6c1.18,0,1.69.43,1.36,1.69l-2.57,9.79" transform="translate(-482.42 -255.75)"/><path class="cls-1" d="M646.49,287l5.75-21.91h-3l-0.4,1.53h-0.16a2.27,2.27,0,0,0-2.56-1.77c-2.63,0-4,2-4.59,4.33l-2.64,10c-0.62,2.36-.31,4.32,2.37,4.32a3.87,3.87,0,0,0,3.45-1.77h0.16l-1.34,5.12a2.89,2.89,0,0,1-2.85,2.48,2.93,2.93,0,0,1-2.6-2.08h-0.16L635.86,290a5.23,5.23,0,0,0,4.31,2C643.52,292,645.6,290.38,646.49,287Zm-0.81-8.3a2.54,2.54,0,0,1-2.42,2.16c-1.34,0-1.6-.95-1.28-2.16l2.36-9a2.46,2.46,0,0,1,2.41-2.12c1.61,0,1.51,1.3,1.15,2.67l-2.22,8.46" transform="translate(-482.42 -255.75)"/><path class="cls-1" d="M661,268.77a1.36,1.36,0,0,0-1.15-.59,2.24,2.24,0,0,0-2.38,1.89L654,283.3h-3l4.78-18.22h2.83l-0.48,1.85h0.15a3.27,3.27,0,0,1,2.87-2.08,1.37,1.37,0,0,1,.91.27l-1,3.66H661Z" transform="translate(-482.42 -255.75)"/><path class="cls-1" d="M670.79,275.58l1.75-6.65c0.79-3-.42-4.09-3.13-4.09h-0.59c-2.71,0-4.45,1.06-5.24,4.09L661,278.81c-0.87,3.31.49,4.72,3.72,4.72a10.41,10.41,0,0,0,3.86-.74l0.86-3.26h-0.16a5.5,5.5,0,0,1-3.36,1.26c-1.49,0-2.39-.47-2-2.13l0.8-3.07h6.05Zm-2.12-2.68h-3.26l1-3.62a2,2,0,0,1,2.12-1.81c1.26,0,1.44.67,1.14,1.81l-1,3.62" transform="translate(-482.42 -255.75)"/><path class="cls-1" d="M675.32,283.53a10.37,10.37,0,0,1-3.24-.55l0.79-3H673a4,4,0,0,0,2.8,1,2.27,2.27,0,0,0,2.48-1.49l0.92-3.5c0.25-.95,0-1-2.05-1s-2.84-1-2.3-3.07l0.84-3.19c0.88-3.34,2.51-3.89,5.58-3.89a7.92,7.92,0,0,1,3,.55l-0.78,3h-0.16a3.27,3.27,0,0,0-2.53-1,2,2,0,0,0-2.18,1.41l-0.66,2.52c-0.24.91,0.06,1,2.06,1s2.84,1,2.29,3.11l-1.09,4.13C680.32,282.94,678.36,283.53,675.32,283.53Z" transform="translate(-482.42 -255.75)"/><path class="cls-1" d="M686.53,283.53a10.33,10.33,0,0,1-3.24-.55l0.78-3h0.16a4,4,0,0,0,2.8,1,2.27,2.27,0,0,0,2.48-1.49l0.92-3.5c0.25-.95,0-1-2.05-1s-2.83-1-2.3-3.07l0.84-3.19c0.87-3.34,2.51-3.89,5.58-3.89a7.92,7.92,0,0,1,3,.55l-0.78,3h-0.16a3.28,3.28,0,0,0-2.53-1,2,2,0,0,0-2.18,1.41l-0.67,2.52c-0.23.91,0.06,1,2.07,1s2.83,1,2.29,3.11l-1.08,4.13C691.52,282.94,689.56,283.53,686.53,283.53Z" transform="translate(-482.42 -255.75)"/><path class="cls-1" d="M695,283.3l4.79-18.22h2.91l-4.78,18.22H695Zm7.11-21.41a1.78,1.78,0,0,1-1.6-2.35,3,3,0,0,1,2.73-2.16,1.61,1.61,0,0,1,1.6,2.16,3.19,3.19,0,0,1-2.73,2.35" transform="translate(-482.42 -255.75)"/><path class="cls-1" d="M707.83,283.3h-2.68l0.5-18.22h2.91L708.13,275c0,1.22-.32,3.27-0.32,3.27h0.08s0.81-2,1.41-3.27l4.76-9.91h2.83Z" transform="translate(-482.42 -255.75)"/><path class="cls-1" d="M725.27,275.58l1.75-6.65c0.79-3-.42-4.09-3.13-4.09h-0.59c-2.72,0-4.45,1.06-5.24,4.09l-2.6,9.88c-0.86,3.31.49,4.72,3.73,4.72a10.41,10.41,0,0,0,3.85-.74l0.85-3.26h-0.16a5.49,5.49,0,0,1-3.36,1.26c-1.49,0-2.39-.47-2-2.13l0.81-3.07h6.05Zm-2.13-2.68h-3.26l0.95-3.62a2,2,0,0,1,2.13-1.81c1.26,0,1.43.67,1.14,1.81l-1,3.62" transform="translate(-482.42 -255.75)"/><path class="cls-1" d="M735.67,283.53c-1.93,0-2.59-1.06-2.09-3l3.31-12.63h-1l0.75-2.83h1l1.24-4.76h3l-1.25,4.76h1.81l-0.75,2.83h-1.81l-3.13,12c-0.24.91,0.26,0.94,1,.94h0.59l-0.65,2.48A6.77,6.77,0,0,1,735.67,283.53Z" transform="translate(-482.42 -255.75)"/><path class="cls-1" d="M750.55,268.77a1.36,1.36,0,0,0-1.14-.59,2.23,2.23,0,0,0-2.39,1.89l-3.47,13.22H740.6l4.78-18.22h2.84l-0.49,1.85h0.16a3.26,3.26,0,0,1,2.87-2.08,1.38,1.38,0,0,1,.91.27l-1,3.66h-0.16Z" transform="translate(-482.42 -255.75)"/><path class="cls-1" d="M758.5,283.29l3.77-14.4c0.77-2.91-.67-4-3.42-4a13.37,13.37,0,0,0-4.71.87l-0.83,3.15h0.16a6.9,6.9,0,0,1,4-1.26c1.34,0,2.09.27,1.7,1.77l-1,3.78H758a2.34,2.34,0,0,0-2.46-1.58c-2.29,0-3.46,1.18-4,3.38l-1.36,5.19c-0.58,2.2,0,3.38,2.27,3.38a4.19,4.19,0,0,0,3.29-1.57h0.15l-0.35,1.34h3Zm-2-3.77a2,2,0,0,1-2.07,1.46c-0.95,0-1.54-.43-1.28-1.46l1-3.86a1.93,1.93,0,0,1,2-1.46c0.91,0,1.58.43,1.32,1.46l-1,3.86" transform="translate(-482.42 -255.75)"/><path class="cls-1" d="M769,283.29l3.57-13.62c0.34-1.3.14-2.16-1.28-2.16s-2,.87-2.38,2.16l-3.57,13.62h-3l4.78-18.22h3l-0.46,1.77h0.16a4.72,4.72,0,0,1,3.71-2c2.8,0,2.82,2,2.18,4.41l-3.68,14h-3Z" transform="translate(-482.42 -255.75)"/><path class="cls-1" d="M778.62,283.53a10.39,10.39,0,0,1-3.24-.55l0.79-3h0.15a4,4,0,0,0,2.8,1,2.27,2.27,0,0,0,2.48-1.49l0.92-3.5c0.25-.95,0-1-2.05-1s-2.84-1-2.3-3.07l0.84-3.19c0.87-3.34,2.51-3.89,5.58-3.89a8,8,0,0,1,3,.55l-0.79,3h-0.15a3.27,3.27,0,0,0-2.53-1,2,2,0,0,0-2.18,1.41l-0.66,2.52c-0.24.91,0.05,1,2.06,1s2.84,1,2.29,3.11l-1.08,4.13C783.61,282.94,781.65,283.53,778.62,283.53Z" transform="translate(-482.42 -255.75)"/><path class="cls-1" d="M787.1,283.29l4.77-18.22h2.91L790,283.29H787.1Zm7.1-21.41a1.77,1.77,0,0,1-1.6-2.35,3,3,0,0,1,2.73-2.16,1.61,1.61,0,0,1,1.59,2.16,3.17,3.17,0,0,1-2.72,2.35" transform="translate(-482.42 -255.75)"/><path class="cls-1" d="M796.95,283.53c-1.93,0-2.59-1.06-2.09-3l3.31-12.63h-1l0.74-2.83h1l1.25-4.76h3l-1.25,4.76h1.81L803,267.9h-1.81l-3.14,12c-0.24.91,0.26,0.94,1,.94h0.59l-0.65,2.48A6.79,6.79,0,0,1,796.95,283.53Z" transform="translate(-482.42 -255.75)"/><path class="cls-1" d="M485.83,284.1c-3,0-3.93-1.32-3.16-4.28l2.6-9.93c0.78-3,2.45-5.11,5.41-5.11a6.14,6.14,0,0,1,3.22.78L493,268.84h-0.16a2.45,2.45,0,0,0-2.38-1.32c-1.4,0-2.12,1.48-2.4,2.54l-2.52,9.62c-0.28,1.05.1,1.71,1.5,1.71a4.4,4.4,0,0,0,3.07-1.32h0.15l-0.85,3.27A8.79,8.79,0,0,1,485.83,284.1Z" transform="translate(-482.42 -255.75)"/><path class="cls-1" d="M492.62,283.87L497.36,265h2.88l-4.73,18.85h-2.88Zm7-22a1.59,1.59,0,0,1-1.59-2.1,3,3,0,0,1,2.7-2.14,1.59,1.59,0,0,1,1.58,2.14,2.91,2.91,0,0,1-2.69,2.1" transform="translate(-482.42 -255.75)"/><path class="cls-1" d="M502.38,284.1c-1.91,0-2.57-1-2.07-3l3.28-13.33h-1l0.73-2.8h1l1.24-4.71h3L507.28,265h1.79l-0.74,2.8h-1.79l-3.11,12.66c-0.23.9,0.26,0.94,1,.94H505l-0.64,2.45A6.75,6.75,0,0,1,502.38,284.1Z" transform="translate(-482.42 -255.75)"/><path class="cls-1" d="M507.42,283.87L512.15,265H515l-4.73,18.85h-2.88Zm7-22a1.58,1.58,0,0,1-1.58-2.1,3,3,0,0,1,2.7-2.14,1.59,1.59,0,0,1,1.58,2.14,2.91,2.91,0,0,1-2.69,2.1" transform="translate(-482.42 -255.75)"/><path class="cls-1" d="M518.81,279.47c-0.56.94-1,1.6-1,1.6h5.33l-0.74,2.8h-9.15l0-.16,8.32-13.47a14,14,0,0,0,1-2.43h-5.29l0.74-2.8h9.11l0,0.15Z" transform="translate(-482.42 -255.75)"/><path class="cls-1" d="M535.69,276.24l1.73-7.41c0.79-3-.42-4.05-3.1-4.05h-0.59c-2.68,0-4.4,1.05-5.19,4.05L526,279.43c-0.86,3.27.49,4.67,3.68,4.67a10.3,10.3,0,0,0,3.82-.74l0.84-3.23h-0.15a5.43,5.43,0,0,1-3.32,1.24c-1.48,0-2.37-.46-1.94-2.1l0.8-3h6Zm-2.11-2.65h-3.23L531.3,270c0.29-1.13.86-2.62,2.1-2.62s1.42,1.49,1.12,2.62l-0.94,3.58" transform="translate(-482.42 -255.75)"/><path class="cls-1" d="M543.89,283.87l3.54-13.48c0.34-1.28.13-3-1.27-3s-2,1.68-2.35,3l-3.54,13.48h-3L542,265H545l-0.46,1.75h0.15a4.68,4.68,0,0,1,3.67-2c2.76,0,2.79,2.81,2.16,5.19l-3.65,13.9h-3Z" transform="translate(-482.42 -255.75)"/><path class="cls-1" d="M553.45,284.1a10.18,10.18,0,0,1-3.2-.54l0.77-3h0.16a3.92,3.92,0,0,0,2.77,1,2.26,2.26,0,0,0,2.46-1.48l0.9-3.47c0.25-.94,0-1-2-1s-2.81-1-2.28-3l0.83-4c0.87-3.31,2.48-3.85,5.53-3.85a7.85,7.85,0,0,1,2.93.55l-0.78,3h-0.16a3.23,3.23,0,0,0-2.49-1,2,2,0,0,0-2.17,1.4L556,272c-0.24.9,0.05,1,2,1s2.81,1,2.27,3.08l-1.07,4.09C558.38,283.53,556.44,284.1,553.45,284.1Z" transform="translate(-482.42 -255.75)"/><path class="cls-1" d="M575.71,267.82l-4,16.05H568.8l4-16.05h-1l0.73-2.8h1l1.56-6c0.65-2.45,1.84-3.31,4.22-3.31a3.68,3.68,0,0,1,1.52.27L580,259h-0.15a0.82,0.82,0,0,0-.79-0.55,1.18,1.18,0,0,0-1.2,1L576.45,265h2l-0.73,2.8h-2Z" transform="translate(-482.42 -255.75)"/><path class="cls-1" d="M586.43,279.86l2.62-10c0.76-2.88-.2-5.07-3.13-5.07h-0.7c-2.88,0-4.6,2.19-5.35,5.07l-2.63,10c-0.76,2.88.24,4.24,3.13,4.24h0.7C584,284.1,585.68,282.75,586.43,279.86Zm-2.76-.16a2,2,0,0,1-2.23,1.68c-1.13,0-1.68-.43-1.35-1.68l2.54-9.7c0.33-1.25,1.1-2.5,2.24-2.5s1.68,1.25,1.34,2.5l-2.54,9.7" transform="translate(-482.42 -255.75)"/><path class="cls-1" d="M598.85,268.68a1.36,1.36,0,0,0-1.13-.58c-1.29,0-2,1.45-2.37,2.7l-3.44,13.08H589L593.74,265h2.8l-0.48,1.83h0.16a3.21,3.21,0,0,1,2.84-2.06,1.35,1.35,0,0,1,.9.27L599,268.68h-0.16Z" transform="translate(-482.42 -255.75)"/></svg>